<svg width="123" height="14" viewBox="0 0 123 14" fill="none" xmlns="http://www.w3.org/2000/svg">
<path d="M5.19513 5.69705C4.489 5.69705 3.88374 5.94924 3.39617 6.43681C2.9086 6.92438 2.67322 7.6137 2.67322 8.47115C2.67322 9.3286 2.92542 10.0179 3.41299 10.5223C3.90055 11.0267 4.50581 11.2789 5.21195 11.2789C5.85083 11.2789 6.35521 11.1108 6.72509 10.7913C7.09497 10.4551 7.36398 10.0684 7.49848 9.61442L9.85226 10.4046C9.61689 11.3125 9.07888 12.1027 8.27186 12.7584C7.46485 13.4141 6.43928 13.7503 5.21195 13.7503C3.73243 13.7503 2.48829 13.246 1.49633 12.254C0.48757 11.2453 0 10.0011 0 8.48797C0 6.97482 0.48757 5.71387 1.47952 4.72192C2.47147 3.72997 3.68199 3.22559 5.1447 3.22559C6.40565 3.22559 7.44804 3.54502 8.25505 4.20071C9.06206 4.85641 9.58326 5.64662 9.80182 6.57132L7.39761 7.37832C7.07816 6.26868 6.3384 5.69705 5.19513 5.69705Z" fill="#1F2327"/>
<path d="M18.8136 3.5112H20.8143V5.8986H18.8136V10.0514C18.8136 10.4717 18.9145 10.7575 19.0994 10.9424C19.2844 11.1106 19.587 11.2114 19.9905 11.2114C20.3604 11.2114 20.6294 11.1778 20.8143 11.1274V13.3466C20.4277 13.5148 19.9233 13.582 19.3012 13.582C18.3261 13.582 17.5695 13.313 16.9979 12.7582C16.4262 12.2202 16.1572 11.4636 16.1572 10.5053V5.88179H14.3583V3.49438H14.8626C15.367 3.49438 15.7369 3.34306 16.0059 3.05725C16.2749 2.77143 16.3926 2.38474 16.3926 1.91398V0.518532H18.8136V3.5112Z" fill="#1F2327"/>
<path d="M22.1087 1.91412C22.1087 1.46018 22.2768 1.05668 22.5962 0.737235C22.9157 0.40098 23.3024 0.249664 23.7731 0.249664C24.2439 0.249664 24.6138 0.417793 24.95 0.737235C25.2695 1.05668 25.4376 1.46018 25.4376 1.93094C25.4376 2.36807 25.2695 2.75476 24.95 3.0742C24.6306 3.39365 24.2439 3.56178 23.7731 3.56178C23.3024 3.56178 22.9325 3.39365 22.5962 3.0742C22.2768 2.75476 22.1087 2.36807 22.1087 1.93094V1.91412ZM25.1182 13.4309H22.4281V5.00767H25.1182V13.4309Z" fill="#1F2327"/>
<path d="M10.4071 1.91412C10.4071 1.46018 10.5753 1.05668 10.8947 0.737235C11.2141 0.40098 11.6008 0.249664 12.0716 0.249664C12.5424 0.249664 12.9122 0.417793 13.2485 0.737235C13.5679 1.05668 13.7361 1.46018 13.7361 1.93094C13.7361 2.36807 13.5679 2.75476 13.2485 3.0742C12.929 3.39365 12.5424 3.56178 12.0716 3.56178C11.6008 3.56178 11.231 3.39365 10.8947 3.0742C10.5753 2.75476 10.4071 2.36807 10.4071 1.93094V1.91412ZM13.4166 13.4309H10.7266V5.00767H13.4166V13.4309Z" fill="#1F2327"/>
<path d="M26.6147 13.4308V11.077L31.3223 5.83139H26.7492V3.51123H34.7521V5.74733L29.91 11.0938H34.8361V13.4308H26.6147Z" fill="#1F2327"/>
<path d="M42.5194 9.9337L44.7555 10.6062C44.4865 11.5141 43.9653 12.2707 43.1751 12.8591C42.3849 13.4476 41.4098 13.7502 40.2329 13.7502C38.8038 13.7502 37.5933 13.2626 36.6013 12.3043C35.6094 11.346 35.105 10.0514 35.105 8.43737C35.105 6.82335 35.5926 5.64646 36.5509 4.67132C37.5092 3.69618 38.6693 3.20861 39.9807 3.20861C41.5107 3.20861 42.7212 3.66255 43.5786 4.58725C44.4529 5.49514 44.8732 6.75609 44.8732 8.3533C44.8732 8.45418 44.8732 8.58868 44.8732 8.72318C44.8732 8.85768 44.8732 8.95856 44.8732 9.04263V9.17712H37.7446C37.7782 9.816 38.0304 10.354 38.518 10.7912C39.0056 11.2283 39.5772 11.43 40.2497 11.43C41.393 11.43 42.1496 10.9256 42.5026 9.91689L42.5194 9.9337ZM37.8119 7.34454H42.2504C42.2168 6.78972 42.0319 6.33577 41.662 5.94908C41.2921 5.5792 40.7541 5.37745 40.0311 5.37745C39.3923 5.37745 38.8543 5.57921 38.4507 5.98271C38.0472 6.38622 37.8287 6.84015 37.8119 7.32772V7.34454Z" fill="#1F2327"/>
<path d="M49.026 7.73134V13.4477H46.3359V3.52815H48.9419V4.75548C49.2277 4.26791 49.6312 3.89803 50.1524 3.64584C50.6736 3.39365 51.2284 3.25914 51.8001 3.25914C52.977 3.25914 53.868 3.62903 54.4733 4.35197C55.0786 5.07492 55.398 6.03325 55.398 7.19333V13.4477H52.708V7.66409C52.708 7.07564 52.5566 6.58806 52.254 6.23499C51.9514 5.86511 51.4974 5.69699 50.8754 5.69699C50.3037 5.69699 49.8666 5.89875 49.5303 6.28544C49.1941 6.67214 49.026 7.1597 49.026 7.76496V7.73134Z" fill="#1F2327"/>
<path d="M66.2758 3.39353V6.10038C66.0068 6.04994 65.7378 6.01631 65.4688 6.01631C64.6954 6.01631 64.0901 6.23488 63.6194 6.67201C63.1486 7.10914 62.9132 7.83208 62.9132 8.82404V13.3635H60.2232V3.44396H62.8292V4.92348C63.3167 3.88109 64.2582 3.37671 65.6537 3.37671C65.805 3.37671 66.0068 3.37672 66.2758 3.41034V3.39353Z" fill="#1F2327"/>
<path d="M74.0601 9.84972L76.2962 10.5222C76.0272 11.4301 75.506 12.1867 74.7158 12.7751C73.9256 13.3636 72.9504 13.6662 71.7735 13.6662C70.3445 13.6662 69.1339 13.1786 68.142 12.2203C67.15 11.262 66.6456 9.96741 66.6456 8.35339C66.6456 6.73936 67.1332 5.56248 68.0915 4.58734C69.0499 3.6122 70.2099 3.12462 71.5213 3.12462C73.0513 3.12462 74.2618 3.57857 75.1193 4.50327C75.9935 5.41116 76.4138 6.67212 76.4138 8.26933C76.4138 8.37021 76.4138 8.5047 76.4138 8.6392C76.4138 8.7737 76.4138 8.87458 76.4138 8.95865V9.09315H69.2852C69.3189 9.73203 69.5711 10.27 70.0586 10.7072C70.5462 11.1443 71.1178 11.3461 71.7903 11.3461C72.9336 11.3461 73.6902 10.8417 74.0433 9.83292L74.0601 9.84972ZM69.3525 7.26056H73.7911C73.7574 6.70573 73.5725 6.2518 73.2026 5.86511C72.8327 5.49523 72.2947 5.29347 71.5718 5.29347C70.9329 5.29347 70.3949 5.49522 69.9914 5.89873C69.5879 6.30223 69.3693 6.75618 69.3525 7.24375V7.26056Z" fill="#1F2327"/>
<path d="M80.1799 13.3635H77.4898V3.444H80.0454V4.65451C80.2976 4.20057 80.7011 3.83069 81.2559 3.56168C81.8107 3.29268 82.3655 3.15818 82.954 3.15818C84.3999 3.15818 85.375 3.713 85.8962 4.80582C86.6023 3.69618 87.6616 3.15818 89.0402 3.15818C90.049 3.15818 90.9064 3.47762 91.5957 4.09969C92.285 4.72176 92.6381 5.68009 92.6381 6.92423V13.3635H90.0321V7.47905C90.0321 6.90742 89.8808 6.45347 89.595 6.11721C89.3092 5.78096 88.8721 5.59602 88.2668 5.59602C87.712 5.59602 87.2749 5.78097 86.9386 6.16766C86.6023 6.53754 86.4342 7.00829 86.4342 7.56311V13.3803H83.7778V7.49586C83.7778 6.92423 83.6265 6.47029 83.3407 6.13403C83.0549 5.79778 82.6009 5.61284 82.0293 5.61284C81.4576 5.61284 81.0205 5.79778 80.6843 6.16766C80.348 6.53754 80.1799 7.00829 80.1799 7.56311V13.3803V13.3635Z" fill="#1F2327"/>
<path d="M95.1937 4.62096C96.1857 3.629 97.4298 3.12462 98.9093 3.12462C100.389 3.12462 101.65 3.629 102.625 4.62096C103.617 5.61291 104.104 6.87387 104.104 8.38702C104.104 9.90017 103.617 11.1611 102.625 12.1531C101.633 13.145 100.389 13.6494 98.9093 13.6494C97.4298 13.6494 96.1688 13.145 95.1937 12.1531C94.2018 11.1611 93.7142 9.90017 93.7142 8.38702C93.7142 6.87387 94.2018 5.61291 95.1937 4.62096ZM97.1272 10.4718C97.6147 10.9762 98.22 11.2116 98.9093 11.2116C99.5986 11.2116 100.204 10.9594 100.691 10.4718C101.179 9.98423 101.431 9.27809 101.431 8.38702C101.431 7.49594 101.179 6.80661 100.691 6.30223C100.204 5.79785 99.5986 5.56248 98.9093 5.56248C98.22 5.56248 97.6147 5.81466 97.1272 6.30223C96.6396 6.7898 96.3874 7.49594 96.3874 8.38702C96.3874 9.27809 96.6396 9.96741 97.1272 10.4718Z" fill="#1F2327"/>
<path d="M109.081 3.42721H111.082V5.81462H109.081V9.96737C109.081 10.3877 109.182 10.6735 109.367 10.8584C109.552 11.0266 109.854 11.1274 110.258 11.1274C110.628 11.1274 110.897 11.0938 111.082 11.0434V13.2627C110.695 13.4308 110.191 13.4981 109.568 13.4981C108.593 13.4981 107.837 13.229 107.265 12.6742C106.693 12.1362 106.424 11.3796 106.424 10.4213V5.79782H104.626V3.41041H105.13C105.634 3.41041 106.004 3.25909 106.273 2.97328C106.542 2.68746 106.66 2.30077 106.66 1.83001V0.434548H109.081V3.42721Z" fill="#1F2327"/>
<path d="M119.673 9.84972L121.909 10.5222C121.64 11.4301 121.119 12.1867 120.329 12.7751C119.538 13.3636 118.563 13.6662 117.386 13.6662C115.957 13.6662 114.747 13.1786 113.755 12.2203C112.763 11.262 112.258 9.96741 112.258 8.35339C112.258 6.73936 112.746 5.56248 113.704 4.58734C114.663 3.6122 115.823 3.12462 117.134 3.12462C118.664 3.12462 119.875 3.57857 120.732 4.50327C121.606 5.41116 122.027 6.67212 122.027 8.26933C122.027 8.37021 122.027 8.5047 122.027 8.6392C122.027 8.7737 122.027 8.87458 122.027 8.95865V9.09315H114.898C114.932 9.73203 115.184 10.27 115.671 10.7072C116.159 11.1443 116.731 11.3461 117.403 11.3461C118.546 11.3461 119.303 10.8417 119.656 9.83292L119.673 9.84972ZM114.965 7.26056H119.404C119.37 6.70573 119.185 6.2518 118.815 5.86511C118.446 5.49523 117.908 5.29347 117.185 5.29347C116.546 5.29347 116.008 5.49522 115.604 5.89873C115.201 6.30223 114.982 6.75618 114.965 7.24375V7.26056Z" fill="#1F2327"/>
</svg>
